<svg width="360" height="321" viewBox="0 0 360 321" fill="none" xmlns="http://www.w3.org/2000/svg">
<g opacity="0.5">
<mask id="mask0" mask-type="alpha" maskUnits="userSpaceOnUse" x="0" y="0" width="360" height="311">
<rect width="360" height="311" fill="#66C6BA"/>
</mask>
<g mask="url(#mask0)">
<path d="M95.9644 319.337C48.5816 309.376 29.7216 303.119 17.7245 285.11C6.30502 267.969 1.28039 240.446 12.9803 225.016C21.5672 213.691 32.1273 218.159 46.5758 205.541C49.6715 202.838 51.9442 200.465 53.8077 197.533C68.0917 175.051 32.0569 143.784 42.2367 123.015C45.4675 116.423 72.2372 111.994 125.645 103.405C137.29 101.532 146.246 100.434 157.656 103.165C179.459 108.385 184.24 131.28 194.961 129.388C204.832 127.647 202.585 109.642 216.343 100.16C234.708 87.504 264.26 101.978 266.353 103.034C292.489 116.231 301.839 143.201 313.451 178.364C328.189 222.997 339.984 257.384 322.739 288.836C308.286 315.195 282.959 326.229 269.351 332.003C233.549 347.196 187.392 338.556 95.9644 319.337Z" fill="#92CED7"/>
<path d="M272.546 152.942L230.945 143.119L213.17 169.048L216.596 182.593L199.568 179.894L184.193 183.181L181.378 190.865C172.906 174.364 165.071 157.739 158.575 143.119C158.575 148.849 134.201 161.917 103.418 166.039C92.6485 188.958 1.22809 316.739 1.22809 316.739L316.397 316.085L272.546 152.942Z" fill="#92CED7"/>
<path opacity="0.4" d="M175.874 179.954L186.276 200.25L192.41 203.718L202.958 202.449H217.51L230.945 216.824L239.823 214.873C239.823 214.873 245.848 214.504 250.468 213.918V189.776L206.282 165.22L175.874 179.954Z" fill="white"/>
<path opacity="0.14" d="M175.874 179.954L184.193 175.923L207.383 236.882C207.383 236.882 179.377 191.396 175.874 179.954Z" fill="#686868"/>
<path d="M230.945 218.052C230.609 218.052 230.283 217.914 230.048 217.663L216.977 203.677H203.032L192.557 204.937C192.297 204.967 192.034 204.915 191.806 204.786L185.672 201.319C185.463 201.2 185.293 201.024 185.184 200.81L174.781 180.514C174.631 180.22 174.605 179.877 174.71 179.564C174.815 179.251 175.042 178.993 175.338 178.849L205.747 164.115C206.107 163.94 206.529 163.953 206.879 164.147L251.065 188.703C251.454 188.92 251.696 189.331 251.696 189.776V213.918C251.696 214.536 251.237 215.058 250.623 215.136C246.335 215.68 240.791 216.042 239.995 216.093L231.209 218.024C231.121 218.043 231.033 218.052 230.945 218.052ZM202.959 201.222H217.511C217.851 201.222 218.176 201.363 218.407 201.611L231.364 215.475L239.56 213.675C239.622 213.661 239.685 213.652 239.748 213.648C239.804 213.645 244.898 213.33 249.24 212.83V190.499L206.243 166.603L177.539 180.511L187.2 199.363L192.663 202.451L202.811 201.231C202.861 201.225 202.909 201.222 202.959 201.222Z" fill="#51B3C3"/>
<path opacity="0.4" d="M91.8634 185.542L98.2256 194.982L134.201 187.579L152.744 202.449L168.8 197.943L184.192 196.296C174.643 178.041 165.785 159.345 158.575 143.119C158.575 148.848 134.201 161.916 103.418 166.038C101.596 169.915 97.4659 176.793 91.8634 185.542Z" fill="white"/>
<path d="M152.744 203.677C152.468 203.677 152.196 203.584 151.976 203.407L133.883 188.899L98.4728 196.185C97.985 196.285 97.4852 196.081 97.2073 195.668L90.8452 186.228C90.5718 185.822 90.5653 185.292 90.8292 184.88C96.7576 175.621 100.619 169.106 102.306 165.516C102.484 165.139 102.841 164.877 103.254 164.821C121.795 162.339 135.509 157.015 142.034 154.063C153.269 148.98 157.347 144.733 157.347 143.119C157.347 142.539 157.753 142.038 158.32 141.918C158.889 141.797 159.462 142.091 159.697 142.62C165.352 155.347 174.381 174.892 185.28 195.727C185.468 196.087 185.466 196.517 185.275 196.875C185.083 197.233 184.727 197.474 184.323 197.517L169.033 199.153L153.075 203.631C152.966 203.662 152.855 203.677 152.744 203.677ZM134.201 186.352C134.478 186.352 134.75 186.446 134.97 186.622L153.02 201.097L168.469 196.761C168.535 196.743 168.602 196.73 168.67 196.723L182.271 195.267C172.406 176.304 164.13 158.536 158.579 146.142C157.781 147.201 156.595 148.329 155.027 149.517C152.104 151.731 147.961 154.076 143.046 156.3C136.476 159.273 122.757 164.605 104.237 167.166C102.427 170.852 98.7634 177.019 93.3319 185.524L98.7839 193.613L133.954 186.377C134.036 186.36 134.119 186.352 134.201 186.352Z" fill="#51B3C3"/>
<path d="M1.22804 317.967C0.768432 317.967 0.347291 317.71 0.136515 317.302C-0.0746694 316.892 -0.0386514 316.4 0.229422 316.025C1.14292 314.748 91.7076 188.073 102.306 165.516C102.484 165.139 102.841 164.877 103.255 164.821C121.795 162.339 135.51 157.015 142.034 154.063C153.269 148.98 157.348 144.733 157.348 143.119C157.348 142.539 157.753 142.038 158.32 141.918C158.889 141.797 159.462 142.091 159.697 142.62C167.001 159.058 181.802 191.029 198.867 220.46C215.54 249.219 229.69 267.582 240.922 275.041C241.487 275.416 241.641 276.178 241.266 276.743C240.891 277.308 240.129 277.462 239.564 277.086C228.015 269.418 213.607 250.78 196.742 221.692C180.457 193.603 166.232 163.225 158.579 146.141C157.782 147.201 156.596 148.328 155.027 149.516C152.104 151.73 147.962 154.076 143.047 156.3C136.477 159.273 122.757 164.605 104.238 167.165C93.0119 190.041 15.4585 298.924 3.6182 315.506L314.796 314.859L271.551 153.968L231.482 144.508L214.183 169.742C213.799 170.301 213.035 170.444 212.476 170.06C211.917 169.677 211.774 168.913 212.157 168.353L229.932 142.425C230.219 142.007 230.733 141.808 231.227 141.924L272.829 151.746C273.268 151.85 273.615 152.187 273.732 152.623L317.583 315.766C317.681 316.134 317.604 316.528 317.372 316.831C317.14 317.134 316.781 317.312 316.399 317.313L1.2305 317.967C1.22968 317.967 1.22886 317.967 1.22804 317.967Z" fill="#51B3C3"/>
<path opacity="0.14" d="M234.832 179.893L252.876 185.168L256.207 191.022L272.643 235.538L250.468 234.486V189.776L234.832 179.893Z" fill="#686868"/>
<path opacity="0.4" d="M254.753 172.784L262.732 168.486L273.37 184.887L284.895 198.886L272.546 152.942L230.945 143.119L218.541 161.213L224.189 165.22H242.784L254.753 172.784Z" fill="white"/>
<path d="M284.896 200.114C284.538 200.114 284.187 199.957 283.947 199.666L272.422 185.667C272.393 185.632 272.365 185.594 272.34 185.555L262.318 170.104L255.336 173.866C254.945 174.076 254.472 174.059 254.097 173.823L242.429 166.448H224.189C223.935 166.448 223.686 166.369 223.479 166.221L217.831 162.215C217.283 161.827 217.149 161.072 217.528 160.519L229.932 142.425C230.219 142.007 230.733 141.808 231.227 141.924L272.829 151.747C273.268 151.851 273.615 152.187 273.732 152.623L286.081 198.567C286.231 199.125 285.971 199.713 285.458 199.977C285.279 200.069 285.086 200.114 284.896 200.114ZM274.363 184.16L282.237 193.725L271.551 153.968L231.482 144.508L220.237 160.911L224.58 163.992H242.784C243.016 163.992 243.244 164.058 243.44 164.182L254.803 171.363L262.149 167.405C262.712 167.101 263.414 167.281 263.762 167.818L274.363 184.16Z" fill="#51B3C3"/>
<path d="M250.468 240.907C249.79 240.907 249.24 240.357 249.24 239.679V190.499L206.243 166.603L176.409 181.058C175.8 181.354 175.064 181.1 174.768 180.489C174.473 179.879 174.728 179.144 175.338 178.848L205.746 164.115C206.106 163.94 206.529 163.952 206.878 164.147L251.064 188.703C251.454 188.919 251.696 189.33 251.696 189.776V239.679C251.696 240.357 251.146 240.907 250.468 240.907Z" fill="#51B3C3"/>
<path d="M168.497 238.316C170.795 262.572 159.776 285.767 143.473 285.767C127.169 285.767 116.15 262.572 118.448 238.316C120.39 217.824 131.479 203.407 143.473 203.407C155.467 203.407 166.556 217.824 168.497 238.316Z" fill="#92CED7"/>
<path d="M143.473 286.995C137.912 286.995 132.657 284.448 128.274 279.631C120.036 270.575 115.699 254.313 117.226 238.201C119.171 217.665 130.455 202.179 143.473 202.179C156.491 202.179 167.774 217.665 169.72 238.201C171.246 254.313 166.909 270.576 158.672 279.631C154.289 284.448 149.033 286.995 143.473 286.995ZM143.473 204.635C137.987 204.635 132.557 207.926 128.181 213.903C123.599 220.162 120.576 228.873 119.67 238.432C118.206 253.889 122.296 269.411 130.09 277.979C133.995 282.271 138.622 284.54 143.472 284.54C148.322 284.54 152.95 282.271 156.855 277.979C164.649 269.411 168.739 253.889 167.274 238.432C166.369 228.874 163.346 220.162 158.764 213.903C154.389 207.926 148.958 204.635 143.473 204.635Z" fill="#51B3C3"/>
<path d="M143.473 317.313C142.795 317.313 142.245 316.763 142.245 316.085V225.215C142.245 224.537 142.795 223.987 143.473 223.987C144.151 223.987 144.701 224.537 144.701 225.215V316.085C144.701 316.763 144.151 317.313 143.473 317.313Z" fill="#51B3C3"/>
<path d="M143.473 275.034C143.147 275.034 142.835 274.905 142.604 274.675L133.333 265.403C132.854 264.924 132.854 264.147 133.333 263.667C133.812 263.188 134.59 263.188 135.07 263.667L143.472 272.07L151.875 263.667C152.355 263.188 153.132 263.188 153.612 263.667C154.091 264.147 154.091 264.924 153.612 265.403L144.341 274.675C144.11 274.905 143.799 275.034 143.473 275.034Z" fill="#51B3C3"/>
<path d="M143.473 261.927C143.158 261.927 142.844 261.807 142.605 261.568L133.333 252.297C132.854 251.818 132.854 251.04 133.333 250.561C133.813 250.081 134.591 250.081 135.07 250.561L143.473 258.963L151.876 250.561C152.356 250.081 153.133 250.081 153.613 250.561C154.093 251.04 154.092 251.818 153.613 252.297L144.342 261.568C144.101 261.807 143.787 261.927 143.473 261.927Z" fill="#51B3C3"/>
<path d="M143.473 248.821C143.158 248.821 142.844 248.701 142.605 248.461L133.333 239.19C132.854 238.711 132.854 237.933 133.333 237.454C133.813 236.974 134.59 236.974 135.07 237.454L143.473 245.857L151.876 237.454C152.355 236.974 153.133 236.974 153.612 237.454C154.092 237.933 154.092 238.711 153.612 239.19L144.341 248.461C144.101 248.701 143.787 248.821 143.473 248.821Z" fill="#51B3C3"/>
<path d="M143.473 235.714C143.158 235.714 142.844 235.594 142.605 235.354L133.333 226.083C132.854 225.604 132.854 224.826 133.333 224.347C133.813 223.867 134.59 223.867 135.07 224.347L143.473 232.75L151.876 224.347C152.355 223.868 153.133 223.868 153.612 224.347C154.092 224.827 154.092 225.604 153.612 226.083L144.341 235.355C144.101 235.594 143.787 235.714 143.473 235.714Z" fill="#51B3C3"/>
<path d="M352.275 245.217C348.937 241.345 348.064 236.454 349.787 231.936C350.682 229.591 351.173 227.042 351.173 224.377C351.173 212.796 341.912 203.407 330.489 203.407C319.065 203.407 309.804 212.796 309.804 224.377C309.804 227.042 310.295 229.591 311.19 231.936C312.914 236.455 312.041 241.345 308.702 245.217C304.645 249.922 302.206 255.962 302.206 262.55C302.206 277.565 314.869 289.736 330.489 289.736C346.109 289.736 358.772 277.565 358.772 262.55C358.771 255.962 356.333 249.922 352.275 245.217Z" fill="#92CED7"/>
<path d="M330.489 290.964C314.216 290.964 300.978 278.217 300.978 262.55C300.978 255.936 303.391 249.496 307.772 244.415C310.797 240.908 311.624 236.519 310.043 232.373C309.07 229.824 308.577 227.133 308.577 224.377C308.577 212.137 318.407 202.179 330.489 202.179C342.572 202.179 352.402 212.137 352.402 224.377C352.402 227.133 351.908 229.824 350.935 232.374C349.354 236.519 350.182 240.908 353.206 244.415C357.587 249.495 360 255.936 360 262.55C359.999 278.218 346.76 290.964 330.489 290.964ZM330.489 204.635C319.76 204.635 311.032 213.491 311.032 224.377C311.032 226.833 311.471 229.229 312.337 231.498C314.251 236.514 313.265 241.806 309.632 246.019C305.635 250.654 303.434 256.525 303.434 262.551C303.434 276.864 315.571 288.508 330.489 288.508C345.407 288.508 357.544 276.864 357.544 262.551C357.544 256.525 355.343 250.654 351.346 246.019C351.345 246.019 351.345 246.019 351.345 246.019C347.713 241.806 346.727 236.514 348.64 231.498C349.506 229.229 349.945 226.834 349.945 224.377C349.945 213.491 341.217 204.635 330.489 204.635Z" fill="#51B3C3"/>
<path d="M330.489 317.967C329.81 317.967 329.261 317.417 329.261 316.739V217.383C329.261 216.705 329.81 216.155 330.489 216.155C331.167 216.155 331.716 216.705 331.716 217.383V316.739C331.716 317.417 331.167 317.967 330.489 317.967Z" fill="#51B3C3"/>
<path d="M330.489 280.832C330.174 280.832 329.86 280.712 329.621 280.472L319.396 270.248C318.916 269.768 318.916 268.991 319.396 268.511C319.876 268.032 320.653 268.032 321.132 268.511L330.489 277.868L339.845 268.511C340.325 268.032 341.102 268.032 341.581 268.511C342.061 268.991 342.061 269.768 341.581 270.248L331.357 280.472C331.117 280.712 330.802 280.832 330.489 280.832Z" fill="#51B3C3"/>
<path d="M330.489 266.377C330.163 266.377 329.851 266.248 329.621 266.017L319.396 255.792C318.916 255.313 318.916 254.536 319.396 254.056C319.876 253.577 320.653 253.577 321.132 254.056L330.489 263.413L339.845 254.056C340.325 253.577 341.102 253.577 341.581 254.056C342.061 254.536 342.061 255.313 341.581 255.792L331.357 266.017C331.126 266.248 330.814 266.377 330.489 266.377Z" fill="#51B3C3"/>
<path d="M330.489 251.922C330.163 251.922 329.851 251.793 329.621 251.562L319.396 241.337C318.916 240.858 318.916 240.081 319.396 239.601C319.876 239.122 320.653 239.122 321.132 239.601L330.489 248.957L339.845 239.601C340.325 239.121 341.102 239.121 341.581 239.601C342.061 240.08 342.061 240.858 341.581 241.337L331.357 251.562C331.126 251.792 330.814 251.922 330.489 251.922Z" fill="#51B3C3"/>
<path d="M330.489 237.466C330.163 237.466 329.851 237.337 329.621 237.107L319.396 226.882C318.916 226.403 318.916 225.625 319.396 225.145C319.876 224.666 320.653 224.666 321.132 225.145L330.489 234.502L339.845 225.145C340.325 224.666 341.102 224.666 341.581 225.145C342.061 225.625 342.061 226.402 341.581 226.881L331.357 237.106C331.126 237.337 330.814 237.466 330.489 237.466Z" fill="#51B3C3"/>
<path d="M26.5604 145.498C20.1533 144.149 12.3955 155.203 9.16472 163.685C3.49712 178.564 6.87525 198.355 13.909 200.058C21.393 201.87 35.3201 183.764 35.2583 166.057C35.2313 158.333 32.5284 146.755 26.5604 145.498Z" fill="#92CED7"/>
</g>
</g>
</svg>
