<svg width="149" height="174" viewBox="0 0 149 174" fill="none" xmlns="http://www.w3.org/2000/svg">
<path d="M93.6198 48.2342H79.2426C79.1085 48.2342 78.9798 48.2875 78.885 48.3824C78.7901 48.4772 78.7368 48.6059 78.7368 48.74V55.8211C78.7368 55.9553 78.7901 56.0839 78.885 56.1788C78.9798 56.2736 79.1085 56.3269 79.2426 56.3269H93.6198C93.7539 56.3269 93.8826 56.2736 93.9774 56.1788C94.0723 56.0839 94.1256 55.9553 94.1256 55.8211V48.74C94.1256 48.6059 94.0723 48.4772 93.9774 48.3824C93.8826 48.2875 93.7539 48.2342 93.6198 48.2342Z" stroke="#AADAF1" stroke-width="2" stroke-linecap="round" stroke-linejoin="round"/>
<path d="M85.9191 40.1238H71.5445C71.4103 40.1238 71.2817 40.1771 71.1868 40.272C71.092 40.3668 71.0387 40.4955 71.0387 40.6296V47.7107C71.0387 47.8449 71.092 47.9735 71.1868 48.0684C71.2817 48.1632 71.4103 48.2165 71.5445 48.2165H85.9191C86.0533 48.2165 86.1819 48.1632 86.2768 48.0684C86.3716 47.9735 86.4249 47.8449 86.4249 47.7107V40.6296C86.4249 40.4955 86.3716 40.3668 86.2768 40.272C86.1819 40.1771 86.0533 40.1238 85.9191 40.1238Z" stroke="#AADAF1" stroke-width="2" stroke-linecap="round" stroke-linejoin="round"/>
<path d="M78.2183 48.2342H63.8437C63.7095 48.2342 63.5809 48.2875 63.486 48.3824C63.3912 48.4772 63.3379 48.6059 63.3379 48.74V55.8211C63.3379 55.9553 63.3912 56.0839 63.486 56.1788C63.5809 56.2736 63.7095 56.3269 63.8437 56.3269H78.2183C78.3525 56.3269 78.4811 56.2736 78.576 56.1788C78.6708 56.0839 78.7241 55.9553 78.7241 55.8211V48.74C78.7241 48.6059 78.6708 48.4772 78.576 48.3824C78.4811 48.2875 78.3525 48.2342 78.2183 48.2342Z" stroke="#AADAF1" stroke-width="2" stroke-linecap="round" stroke-linejoin="round"/>
<path d="M101.075 56.3421H86.7006C86.5665 56.3421 86.4378 56.3954 86.343 56.4902C86.2481 56.5851 86.1948 56.7138 86.1948 56.8479V63.929C86.1948 64.0631 86.2481 64.1918 86.343 64.2867C86.4378 64.3815 86.5665 64.4348 86.7006 64.4348H101.075C101.209 64.4348 101.338 64.3815 101.433 64.2867C101.528 64.1918 101.581 64.0631 101.581 63.929V56.8479C101.581 56.7138 101.528 56.5851 101.433 56.4902C101.338 56.3954 101.209 56.3421 101.075 56.3421Z" stroke="#AADAF1" stroke-width="2" stroke-linecap="round" stroke-linejoin="round"/>
<path fill-rule="evenodd" clip-rule="evenodd" d="M77.2297 143.341H125.943C126.265 143.341 126.573 143.469 126.801 143.697C127.029 143.924 127.157 144.233 127.157 144.555C127.156 144.876 127.028 145.185 126.8 145.412C126.572 145.639 126.264 145.766 125.943 145.766H77.2297C76.9081 145.766 76.5998 145.639 76.3722 145.412C76.1446 145.185 76.0164 144.876 76.0157 144.555C76.0157 144.233 76.1436 143.924 76.3713 143.697C76.5989 143.469 76.9077 143.341 77.2297 143.341Z" fill="white"/>
<path fill-rule="evenodd" clip-rule="evenodd" d="M1.21137 150.645H49.9319C50.0911 150.644 50.2488 150.676 50.3959 150.736C50.543 150.797 50.6767 150.886 50.7892 150.999C50.9018 151.111 50.991 151.245 51.0518 151.392C51.1125 151.539 51.1436 151.697 51.1433 151.856C51.1436 152.015 51.1125 152.173 51.0518 152.32C50.991 152.467 50.9018 152.601 50.7892 152.713C50.6767 152.826 50.543 152.915 50.3959 152.976C50.2488 153.037 50.0911 153.068 49.9319 153.067H1.21137C0.890098 153.067 0.58198 152.94 0.354804 152.713C0.127627 152.486 0 152.177 0 151.856H0C0 151.535 0.127627 151.227 0.354804 151C0.58198 150.772 0.890098 150.645 1.21137 150.645Z" fill="white"/>
<path fill-rule="evenodd" clip-rule="evenodd" d="M107.355 144.287C103.293 144.289 99.3202 145.48 95.9272 147.713C92.5343 149.946 89.8692 153.123 88.261 156.853C86.9523 155.798 85.3239 155.218 83.6426 155.209C81.9614 155.201 80.327 155.763 79.0075 156.805C78.0918 154.624 76.5834 152.743 74.6531 151.376C72.7229 150.008 70.4482 149.209 68.0868 149.068C65.7254 148.927 63.3719 149.451 61.293 150.58C59.2142 151.709 57.4932 153.398 56.3252 155.455C55.1092 154.703 53.7408 154.232 52.3197 154.076C50.8986 153.92 49.4607 154.084 48.1107 154.554C46.7606 155.024 45.5325 155.79 44.5159 156.795C43.4992 157.8 42.7195 159.019 42.2338 160.364C42.4563 160.364 42.6662 160.3 42.8913 160.3H139.172C138.819 159.006 138.139 157.825 137.196 156.871C136.254 155.917 135.081 155.222 133.791 154.854C132.502 154.486 131.139 154.457 129.835 154.77C128.531 155.083 127.329 155.728 126.347 156.641C124.716 152.965 122.053 149.842 118.682 147.649C115.311 145.456 111.376 144.288 107.355 144.287Z" fill="#DEDEDE"/>
<path fill-rule="evenodd" clip-rule="evenodd" d="M37.0164 157.878H147.168C147.49 157.878 147.798 158.006 148.025 158.234C148.252 158.462 148.379 158.77 148.379 159.091C148.379 159.413 148.251 159.72 148.024 159.947C147.797 160.174 147.489 160.302 147.168 160.303H37.0164C36.6954 160.302 36.3876 160.174 36.1606 159.947C35.9336 159.72 35.8057 159.413 35.8051 159.091C35.8051 158.77 35.9326 158.462 36.1597 158.234C36.3868 158.006 36.6949 157.878 37.0164 157.878Z" fill="#DEDEDE"/>
<path fill-rule="evenodd" clip-rule="evenodd" d="M19.1367 143.986L15.9325 148.475L22.5331 156.747L25.5679 151.436L19.1367 143.986Z" fill="#F77F89"/>
<path fill-rule="evenodd" clip-rule="evenodd" d="M15.6366 146.434L8.04968 155.199L19.9687 169.109C19.9687 169.109 27.8793 169.023 30.3779 169.023C30.3273 165.988 28.1221 159.701 21.9818 159.944C23.221 157.769 24.101 155.976 24.101 155.976L15.6366 146.434Z" fill="#6367FD"/>
<path d="M21.9767 159.951C18.5449 158.892 16.9845 160.273 14.5769 162.827C12.8952 164.612 9.39001 164.46 7.24292 163.436" stroke="#4C4FD9" stroke-width="2" stroke-linecap="round" stroke-linejoin="round"/>
<path d="M14.1117 171.099C15.2427 171.585 16.4105 171.98 17.6042 172.28C20.7452 169.498 22.604 162.895 22.0147 159.951" stroke="#4C4FD9" stroke-width="2" stroke-linecap="round" stroke-linejoin="round"/>
<path d="M12.5714 149.883C13.3135 150.445 13.8888 151.198 14.2358 152.062C14.5829 152.925 14.6885 153.867 14.5414 154.786C14.3944 155.705 14.0002 156.566 13.401 157.279C12.8019 157.991 12.0203 158.526 11.14 158.828" stroke="#4C4FD9" stroke-width="2" stroke-linecap="round" stroke-linejoin="round"/>
<path d="M9.37231 153.664L21.1042 166.476L29.7962 165.97" stroke="#4C4FD9" stroke-width="2" stroke-linecap="round" stroke-linejoin="round"/>
<path fill-rule="evenodd" clip-rule="evenodd" d="M38.0509 106.896L17.9911 143.66L25.6716 152.65L61.9192 115.247L53.9631 104.003L38.0509 106.896Z" fill="#F7D167"/>
<path d="M29.8418 148.348L20.8943 138.336" stroke="#FF3274" stroke-width="2" stroke-linecap="round" stroke-linejoin="round"/>
<path fill-rule="evenodd" clip-rule="evenodd" d="M53.9606 104.006L38.0534 106.899L29.9607 121.741L43.8523 121.41L48.3817 129.217L61.9192 115.252L53.9606 104.006Z" fill="#BF9111"/>
<path d="M21.385 147.633C29.6042 138.005 54.7674 108.661 54.7674 108.661" stroke="#FF3274" stroke-width="2" stroke-linecap="round" stroke-linejoin="round"/>
<path fill-rule="evenodd" clip-rule="evenodd" d="M76.0157 156.049L78.4385 161.107L89.2979 159.142L87.5023 153.05L76.0157 156.049Z" fill="#F77F89"/>
<path fill-rule="evenodd" clip-rule="evenodd" d="M76.8275 161.127L80.5375 171.749C80.5375 171.749 102.001 167.45 103.632 167.027C100.597 159.896 94.371 161.092 91.6397 161.775C90.9549 160.476 90.3436 159.139 89.8087 157.771L76.8275 161.127Z" fill="#6367FD"/>
<path d="M91.4576 159.332C91.8976 157.9 92.9193 156.947 93.7336 157.2C94.548 157.453 94.8615 158.813 94.4215 160.235C93.9815 161.656 92.9598 162.617 92.1454 162.367C91.3311 162.116 91.0175 160.761 91.4576 159.332Z" stroke="#4C4FD9" stroke-width="2" stroke-linecap="round" stroke-linejoin="round"/>
<path d="M95.0536 159.15C96.1917 157.984 97.6079 157.617 98.2199 158.333C98.8319 159.049 98.402 160.573 97.264 161.739C96.1259 162.905 94.7097 163.274 94.0977 162.559C93.4857 161.843 93.9156 160.323 95.0536 159.15Z" stroke="#4C4FD9" stroke-width="2" stroke-linecap="round" stroke-linejoin="round"/>
<path fill-rule="evenodd" clip-rule="evenodd" d="M85.1528 75.7544C86.4982 76.8419 87.8942 78.1367 89.6873 78.8145C92.368 79.4644 97.2742 84.841 97.2742 85.9993C97.2742 87.0968 96.2955 87.4661 95.686 87.5167C95.1599 87.5495 94.0396 86.3331 93.7564 85.9866C94.2445 87.0994 94.5277 88.6066 93.9865 89.0796C93.4453 89.5525 92.6664 89.7169 92.1353 89.1049C91.2628 88.0933 91.4778 86.9451 91.3968 86.2724C90.9669 85.4505 89.796 83.6221 89.3003 83.3995C88.9539 83.4172 88.4329 83.5386 88.3343 84.0924C88.2356 84.6463 89.5229 85.883 89.667 86.3989C89.667 87.0539 88.9513 87.8859 88.3343 87.7215C87.6312 87.5344 85.4563 85.4227 84.9758 84.8461C84.3284 84.0697 84.035 82.3778 83.6886 81.8113C83.3421 81.2448 81.9967 80.041 81.7463 79.7881C81.4959 79.5352 83.8099 74.6645 85.1528 75.7544Z" fill="#F77F89"/>
<path fill-rule="evenodd" clip-rule="evenodd" d="M71.724 49.2433C76.5568 53.3478 83.7897 69.5129 88.4379 73.491C87.9524 75.9871 80.2517 85.2836 74.8093 83.0682C67.9912 80.2914 68.0747 46.1453 71.724 49.2433Z" fill="#3B4161"/>
<path fill-rule="evenodd" clip-rule="evenodd" d="M75.4796 72.2847L89.8087 153.649L74.7968 157.19L55.0835 105.462L59.9796 69.513L75.4796 72.2847Z" fill="#F7D167"/>
<path d="M62.827 125.78L55.7788 107.283" stroke="#FF3274" stroke-width="2" stroke-linecap="round" stroke-linejoin="round"/>
<path d="M81.324 155.652L58.1663 82.828" stroke="#FF3274" stroke-width="2" stroke-linecap="round" stroke-linejoin="round"/>
<path d="M76.749 79.5024C74.7258 80.3496 64.3571 82.264 60.3512 81.8442" stroke="#FF3274" stroke-width="2" stroke-linecap="round" stroke-linejoin="round"/>
<path fill-rule="evenodd" clip-rule="evenodd" d="M33.2685 60.085L60.4574 62.9705C62.0785 63.1425 63.2393 64.67 63.0623 66.3846L58.6467 107.973C58.4646 109.686 57.0054 110.935 55.3843 110.755L28.1954 107.88C26.5744 107.708 25.4136 106.18 25.5906 104.466L30.0036 62.877C30.1857 61.1623 31.6475 59.9231 33.2685 60.085Z" fill="#6367FD"/>
<path d="M34.1613 85.4252C34.1613 83.3745 34.7694 81.3698 35.9087 79.6646C37.048 77.9595 38.6674 76.6305 40.5621 75.8457C42.4567 75.0609 44.5415 74.8556 46.5529 75.2557C48.5642 75.6558 50.4117 76.6433 51.8618 78.0934C53.3119 79.5435 54.2995 81.391 54.6995 83.4024C55.0996 85.4137 54.8943 87.4985 54.1095 89.3932C53.3247 91.2878 51.9957 92.9072 50.2906 94.0465C48.5855 95.1859 46.5808 95.794 44.53 95.794C41.7801 95.794 39.1427 94.7016 37.1982 92.7571C35.2537 90.8125 34.1613 88.1752 34.1613 85.4252Z" stroke="#4C4FD9" stroke-width="2" stroke-linecap="round" stroke-linejoin="round"/>
<path fill-rule="evenodd" clip-rule="evenodd" d="M43.8624 13.6177C43.8624 11.0357 45.3166 8.94168 47.1121 8.94168C48.9077 8.94168 50.3644 11.0357 50.3644 13.6177C50.3644 16.1998 48.9077 18.2938 47.1121 18.2938C45.3166 18.2938 43.8624 16.1998 43.8624 13.6177Z" fill="#F77F89"/>
<path fill-rule="evenodd" clip-rule="evenodd" d="M45.6934 16.0708C45.6934 14.0165 46.3026 12.0083 47.444 10.3002C48.5854 8.59206 50.2077 7.2608 52.1057 6.47475C54.0037 5.6887 56.0922 5.48316 58.1071 5.88413C60.1219 6.2851 61.9726 7.27456 63.4251 8.72739C64.8775 10.1802 65.8666 12.0311 66.267 14.0461C66.6675 16.061 66.4615 18.1495 65.6749 20.0473C64.8884 21.9451 63.5568 23.5671 61.8484 24.7081C60.14 25.8491 58.1317 26.4578 56.0773 26.4573C54.7134 26.4573 53.363 26.1886 52.103 25.6666C50.843 25.1446 49.6981 24.3795 48.7339 23.415C47.7696 22.4505 47.0048 21.3055 46.4831 20.0454C45.9614 18.7852 45.693 17.4347 45.6934 16.0708Z" fill="#F77F89"/>
<path fill-rule="evenodd" clip-rule="evenodd" d="M42.1781 82.35C41.6951 83.9609 40.1297 87.3118 41.6192 93.308C38.7969 97.6705 40.1145 100.743 46.5785 101.514C47.666 100.187 48.756 99.3168 49.9699 97.3999C50.3644 95.6751 50.329 93.0273 50.3644 92.3091C50.4327 90.8574 48.3058 85.1142 48.8344 82.5346C49.3629 79.9551 42.6612 80.7365 42.1781 82.35Z" fill="#F77F89"/>
<path fill-rule="evenodd" clip-rule="evenodd" d="M55.0656 29.9422C40.1245 29.9422 34.4368 61.3393 36.068 81.4294C39.166 83.3843 51.5301 84.1455 55.0656 83.2174C55.8243 79.6895 56.0772 64.9254 56.2466 62.5229C64.4987 63.3322 63.0749 64.6093 62.0784 75.6533C66.3777 75.8025 72.169 74.6417 76.4935 72.8259C77.1005 65.2542 72.6495 29.9422 55.0656 29.9422Z" fill="#3B4161"/>
<path d="M34.1613 61.9893L36.1338 43.1105C36.4424 40.1574 37.9115 37.4477 40.2178 35.5776C42.5242 33.7076 45.479 32.8303 48.4322 33.1388L50.549 33.3589C53.5021 33.6674 56.2118 35.1365 58.0819 37.4428C59.9519 39.7492 60.8292 42.704 60.5207 45.6572L58.4975 65.067" stroke="#6367FD" stroke-width="6.77" stroke-linecap="round" stroke-linejoin="round"/>
<path fill-rule="evenodd" clip-rule="evenodd" d="M48.9532 22.1479C49.7321 25.4938 49.9268 30.2052 49.7978 32.0564C51.778 33.2248 56.9118 34.0366 59.3801 30.7237C58.2117 27.8988 57.9512 26.5332 58.0498 24.907C58.1485 23.2809 48.1742 18.8021 48.9532 22.1479Z" fill="#F77F89"/>
<path fill-rule="evenodd" clip-rule="evenodd" d="M52.2636 25.734C52.0436 23.9384 53.3359 19.7125 54.0744 19.1258C61.0164 19.3787 65.3257 14.4346 66.0263 13.0816C66.6743 13.9419 67.1461 14.9216 67.4147 15.9646C67.5942 16.6525 67.4374 17.1355 66.2615 18.1218C65.9631 22.1758 62.2834 28.612 52.2636 25.734Z" fill="white"/>
<path d="M54.6257 19.5532C54.6257 19.5532 48.3033 14.379 46.4673 14.1261" stroke="white" stroke-width="3.05" stroke-linecap="round" stroke-linejoin="round"/>
<path fill-rule="evenodd" clip-rule="evenodd" d="M59.7823 14.1336C59.7823 13.2333 60.0757 12.5025 60.4374 12.5025C60.799 12.5025 61.0924 13.2333 61.0924 14.1336C61.0924 15.034 60.799 15.7648 60.4374 15.7648C60.0757 15.7648 59.7823 15.034 59.7823 14.1336Z" fill="#CB5D66"/>
<path d="M55.622 77.6031C53.217 77.9496 40.1321 77.3831 35.8051 75.6027" stroke="#737999" stroke-width="2" stroke-linecap="round" stroke-linejoin="round"/>
<path d="M56.2469 62.5229C56.0774 57.5737 60.5815 41.5046 51.6796 34.8965" stroke="#737999" stroke-width="2" stroke-linecap="round" stroke-linejoin="round"/>
<path d="M56.2494 62.4951L51.6796 64.4525" stroke="#737999" stroke-width="2" stroke-linecap="round" stroke-linejoin="round"/>
<path d="M51.8793 62.0601L56.262 62.3686" stroke="#737999" stroke-width="2" stroke-linecap="round" stroke-linejoin="round"/>
<path d="M52.5292 58.9773L56.267 62.3357" stroke="#737999" stroke-width="2" stroke-linecap="round" stroke-linejoin="round"/>
<path d="M76.5064 72.8208C76.7592 69.5104 76.0613 60.8993 73.7245 52.2553" stroke="#737999" stroke-width="2" stroke-linecap="round" stroke-linejoin="round"/>
<path d="M85.0011 69.4801C82.9779 73.051 78.1728 76.9076 76.4279 77.6739" stroke="#737999" stroke-width="2" stroke-linecap="round" stroke-linejoin="round"/>
<path d="M70.9349 80.8705C70.7225 79.5909 69.9587 74.839 69.9587 74.839" stroke="#FF3274" stroke-width="2" stroke-linecap="round" stroke-linejoin="round"/>
<path d="M88.916 148.589L72.5055 151.178" stroke="#FF3274" stroke-width="2" stroke-linecap="round" stroke-linejoin="round"/>
<path d="M84.2146 121.708C83.924 121.741 83.6319 121.757 83.3396 121.756C81.4031 121.757 79.5337 121.048 78.0845 119.763C76.6353 118.479 75.7069 116.708 75.4746 114.786C75.2423 112.863 75.7223 110.922 76.8238 109.33C77.9254 107.737 79.5722 106.603 81.4529 106.143" stroke="#FF3274" stroke-width="2" stroke-linecap="round" stroke-linejoin="round"/>
<path d="M79.832 169.733L102.787 165.381" stroke="#4C4FD9" stroke-width="2" stroke-linecap="round" stroke-linejoin="round"/>
<path d="M77.9958 164.744C78.7738 164.439 79.6146 164.328 80.445 164.422C81.2754 164.515 82.0704 164.81 82.7608 165.281C83.4513 165.752 84.0162 166.384 84.4067 167.123C84.7971 167.862 85.0011 168.685 85.0011 169.521C85.0018 169.966 84.9449 170.41 84.8316 170.841" stroke="#4C4FD9" stroke-width="2" stroke-linecap="round" stroke-linejoin="round"/>
<path d="M52.3724 25.3547C51.5783 25.0537 48.3868 23.941 46.7278 20.5977" stroke="white" stroke-width="3.05" stroke-linecap="round" stroke-linejoin="round"/>
<path fill-rule="evenodd" clip-rule="evenodd" d="M43.6753 18.0485C43.6748 17.3865 43.8707 16.7393 44.2381 16.1887C44.6056 15.6381 45.1281 15.2089 45.7396 14.9553C46.351 14.7018 47.024 14.6353 47.6732 14.7643C48.3225 14.8933 48.9189 15.212 49.387 15.6801C49.855 16.1482 50.1738 16.7446 50.3028 17.3938C50.4318 18.0431 50.3653 18.716 50.1118 19.3275C49.8582 19.939 49.429 20.4615 48.8784 20.829C48.3278 21.1964 47.6805 21.3923 47.0186 21.3918C46.1321 21.3911 45.2821 21.0387 44.6553 20.4118C44.0284 19.785 43.676 18.935 43.6753 18.0485Z" fill="#F77F89"/>
<path d="M50.2177 19.0272C50.0077 19.7118 49.5836 20.3109 49.0077 20.7366C48.4319 21.1622 47.7346 21.3919 47.0186 21.3918" stroke="#CB5D66" stroke-width="2" stroke-linecap="round" stroke-linejoin="round"/>
<path d="M44.3807 15.9924C44.8635 15.3724 45.5494 14.9426 46.3179 14.7785" stroke="#CB5D66" stroke-width="2" stroke-linecap="round" stroke-linejoin="round"/>
<path fill-rule="evenodd" clip-rule="evenodd" d="M52.3497 1.28649C50.9177 1.6163 49.5648 2.22496 48.3681 3.07771C47.1713 3.93046 46.1543 5.01061 45.3751 6.25645C44.5959 7.5023 44.0698 8.88944 43.8267 10.3387C43.5837 11.7879 43.6285 13.2708 43.9586 14.7027L65.7659 9.6776C65.4361 8.24564 64.8274 6.89266 63.9747 5.69596C63.1219 4.49925 62.0418 3.48225 60.7959 2.70304C59.5501 1.92383 58.1629 1.39767 56.7137 1.15462C55.2645 0.911564 53.7816 0.956376 52.3497 1.28649Z" fill="#F2E283"/>
<path fill-rule="evenodd" clip-rule="evenodd" d="M57.4759 8.0616L73.2339 4.43001C74.5388 4.12653 75.7629 4.63485 75.9854 5.55793C76.1978 6.48353 75.3127 7.47741 74.0052 7.78089L58.2472 11.4125C56.9398 11.7134 55.7183 11.2076 55.4957 10.282C55.2808 9.35643 56.1684 8.36255 57.4759 8.0616Z" fill="#F2E283"/>
<path d="M41.1589 99.4812C41.8323 98.7672 42.436 97.9907 42.9621 97.1621" stroke="#CB5D66" stroke-width="2" stroke-linecap="round" stroke-linejoin="round"/>
<path d="M43.9508 100.996C45.013 99.9693 46.5683 97.802 47.3624 96.5021" stroke="#CB5D66" stroke-width="2" stroke-linecap="round" stroke-linejoin="round"/>
<path d="M88.6377 83.5943C90.2309 82.2716 92.7169 84.9801 93.8474 86.0726" stroke="#CB5D66" stroke-width="2" stroke-linecap="round" stroke-linejoin="round"/>
<path d="M47.5976 19.4091C47.4152 19.4897 47.2179 19.5311 47.0184 19.5305C46.7963 19.5308 46.577 19.4798 46.3778 19.3814C46.1786 19.283 46.0048 19.1399 45.8701 18.9632C45.7353 18.7866 45.6432 18.5812 45.601 18.363C45.5588 18.1449 45.5675 17.92 45.6266 17.7058C45.6856 17.4916 45.7934 17.294 45.9415 17.1283C46.0895 16.9626 46.2739 16.8335 46.4801 16.7508C46.6864 16.6682 46.9089 16.6344 47.1304 16.652C47.3519 16.6696 47.5663 16.7381 47.7569 16.8523" stroke="#CB5D66" stroke-width="2" stroke-linecap="round" stroke-linejoin="round"/>
<path d="M57.6756 1.35731C56.1131 0.952802 54.4816 0.890918 52.8929 1.1759C51.3042 1.46088 49.796 2.08598 48.4715 3.00836C47.147 3.93074 46.0376 5.12859 45.2194 6.51981C44.4011 7.91103 43.8933 9.46273 43.7308 11.0685" stroke="#FF3274" stroke-width="2" stroke-linecap="round" stroke-linejoin="round"/>
<path d="M66.0262 13.0816C66.6742 13.9419 67.1461 14.9216 67.4146 15.9646C67.5942 16.6525 67.4374 17.1355 66.2614 18.1218C66.0288 21.2653 63.7653 25.8402 58.0903 26.3966" stroke="#C9C9C9" stroke-width="2" stroke-linecap="round" stroke-linejoin="round"/>
</svg>
