<svg width="126" height="164" viewBox="0 0 126 164" fill="none" xmlns="http://www.w3.org/2000/svg">
<path fill-rule="evenodd" clip-rule="evenodd" d="M116.631 92.954C103.843 92.768 97.5345 138.922 98.6089 142.24C98.8545 142.995 99.4377 143.824 100.186 144.616H111.435C113.134 140.986 115.568 133.596 117.48 125.432L114.266 123.637L118.325 121.594C119.219 117.393 119.848 113.139 120.208 108.859L117.053 108.131L118.789 105.606L116.796 105.147L120.205 101.453C119.838 97.4468 118.787 94.3222 116.631 92.954Z" fill="#AADAF1"/>
<path d="M116.599 92.9563L104.957 144.611" stroke="#72A5BD" stroke-width="2" stroke-linecap="round" stroke-linejoin="round"/>
<path fill-rule="evenodd" clip-rule="evenodd" d="M93.51 81.9113C77.8986 87.7288 88.7347 138.95 91.8501 144.464H108.366C108.389 144.421 108.423 144.386 108.444 144.343C110.281 140.608 109.835 115.333 104.858 98.0897L100.753 98.1838L103.554 94.1019C101.127 87.4051 97.849 82.5311 93.51 81.9113Z" fill="#AADAF1"/>
<path d="M79.4046 144.618H124.172" stroke="#72A5BD" stroke-width="2" stroke-linecap="round" stroke-linejoin="round"/>
<path d="M93.4732 81.9273L101.033 144.497" stroke="#72A5BD" stroke-width="2" stroke-linecap="round" stroke-linejoin="round"/>
<path fill-rule="evenodd" clip-rule="evenodd" d="M90.957 137.977C92.5641 139.143 97.4288 143.075 97.6929 144.143C97.9569 145.211 95.3007 152.321 94.7313 152.835C94.1619 153.349 88.5189 154.715 88.2503 155.08C87.9817 155.445 88.1975 156.561 88.4661 157.11C88.7347 157.658 97.3669 157.038 97.3669 157.038C97.3669 157.038 108.573 145.968 108.433 145.146C108.292 144.324 95.7208 132.979 95.7208 132.979C95.7208 132.979 89.3546 136.813 90.957 137.977Z" fill="#F77F89"/>
<path fill-rule="evenodd" clip-rule="evenodd" d="M103.402 140.07C102.973 142.972 101.453 147.35 96.6896 148.193C95.9504 150.346 95.0412 152.555 94.729 152.835C94.1597 153.347 88.5189 154.715 88.2503 155.08C87.9817 155.445 88.2021 156.561 88.4661 157.11C88.7301 157.658 97.3646 157.038 97.3646 157.038C97.3646 157.038 108.577 145.973 108.435 145.151C108.375 144.804 106.001 142.513 103.402 140.07Z" fill="#6367FD"/>
<path fill-rule="evenodd" clip-rule="evenodd" d="M35.3486 147.715C34.7792 149.226 28.6747 163.689 28.0273 163.992C27.3799 164.295 9.29604 155.475 9.15829 154.605C9.02054 153.735 9.84703 151.889 10.499 152.022C17.407 153.4 25.8119 153.87 26.7279 152.128C27.6439 150.385 28.8217 146.336 28.8217 146.336C28.8217 146.336 35.9271 146.216 35.3486 147.715Z" fill="#F77F89"/>
<path fill-rule="evenodd" clip-rule="evenodd" d="M10.4967 152.022C9.83555 151.891 9.01137 153.737 9.156 154.605C9.30063 155.473 27.3753 164.302 28.025 163.99C28.312 163.85 29.7216 160.808 31.2024 157.454C25.6214 158.297 22.6529 155.682 21.3948 153.237C17.7333 153.156 14.0862 152.749 10.4967 152.022Z" fill="#6367FD"/>
<path fill-rule="evenodd" clip-rule="evenodd" d="M52.4361 106.081C70.8804 128.95 88.8036 141.133 88.8036 141.133L98.3449 131.491L70.7955 99.4373C70.7955 99.4373 73.0545 74.6933 68.2701 70.1546C63.4857 65.6158 40.8378 91.7028 52.4361 106.081Z" fill="#C4C4C4"/>
<path fill-rule="evenodd" clip-rule="evenodd" d="M44.6649 68.6738L25.7476 145.987L36.0029 151.037C36.0029 151.037 53.1776 105.81 55.7168 103.055C60.942 97.3963 69.4226 77.0442 68.6811 69.1673C67.9395 61.2905 44.6649 68.6738 44.6649 68.6738Z" fill="#C4C4C4"/>
<path fill-rule="evenodd" clip-rule="evenodd" d="M77.6208 74.0757C78.0593 75.5381 79.4804 78.5801 78.1282 84.0234C80.6903 87.9836 79.4942 90.773 73.6262 91.4732C72.639 90.2679 71.6472 89.4759 70.5475 87.7379C70.1894 86.1722 70.2215 83.7685 70.1894 83.1165C70.1274 81.7988 72.8043 75.9698 72.3245 73.6281C71.8447 71.2864 77.18 72.611 77.6208 74.0757Z" fill="#F77F89"/>
<path d="M78.546 89.6274C77.9341 88.9798 77.386 88.2748 76.9091 87.5222" stroke="#CB5D66" stroke-width="2" stroke-linecap="round" stroke-linejoin="round"/>
<path d="M76.0092 91.0026C75.045 90.0705 73.6353 88.103 72.9122 86.9229" stroke="#CB5D66" stroke-width="2" stroke-linecap="round" stroke-linejoin="round"/>
<path fill-rule="evenodd" clip-rule="evenodd" d="M28.8332 68.2766C27.6118 69.2661 26.3445 70.4415 24.7168 71.0568C22.2833 71.6445 17.8295 76.5277 17.8295 77.5791C17.8295 78.5755 18.7179 78.9107 19.2712 78.9566C19.7487 78.9864 20.7658 77.8822 21.0229 77.5676C20.5798 78.5778 20.3342 79.9461 20.814 80.3754C21.2938 80.8047 22.0124 80.9539 22.4922 80.3983C23.2866 79.48 23.0914 78.4377 23.1649 77.8271C23.5552 77.0809 24.6181 75.4211 25.0681 75.2191C25.3826 75.2351 25.8555 75.3453 25.9451 75.8481C26.0346 76.3509 24.8661 77.4735 24.7352 77.9419C24.7352 78.5365 25.3826 79.2918 25.9451 79.1426C26.5833 78.9727 28.5577 77.0557 28.9939 76.5322C29.5816 75.8274 29.8479 74.2893 30.1624 73.7773C30.4769 73.2653 31.6983 72.1703 31.9256 71.9407C32.1529 71.7111 30.0522 67.2894 28.8332 68.2766Z" fill="#F77F89"/>
<path d="M25.6696 75.3958C24.2232 74.1951 21.9665 76.6539 20.9403 77.6457" stroke="#CB5D66" stroke-width="2" stroke-linecap="round" stroke-linejoin="round"/>
<path fill-rule="evenodd" clip-rule="evenodd" d="M47.794 28.9269C43.0647 33.4473 40.7483 44.7678 39.4902 52.0546C35.3417 56.1365 26.9873 65.175 26.9942 67.3445C27.0011 69.514 31.0784 73.1368 32.1161 73.1115C33.1538 73.0863 42.8145 62.5142 44.3159 61.279C45.8174 60.0439 48.9213 27.8456 47.794 28.9269Z" fill="#F7D167"/>
<path fill-rule="evenodd" clip-rule="evenodd" d="M46.0446 10.331C45.4087 9.75937 44.3297 9.53898 44.3297 6.39376C44.3297 3.04421 48.3243 0 53.4118 0C61.4011 0 63.7222 7.00673 63.9977 9.48388C64.2731 11.961 63.8392 17.8222 64.3948 20.2029C65.5106 25.0745 70.1963 28.835 70.1963 36.9759C70.1963 39.4507 59.4612 37.3065 57.5396 37.0195C55.618 36.7325 53.3751 23.9886 53.3751 23.9886C53.3751 23.9886 46.6806 10.9027 46.0446 10.331Z" fill="black"/>
<path fill-rule="evenodd" clip-rule="evenodd" d="M58.2467 17.8222C57.8633 19.3695 57.8082 25.9883 58.0929 28.1968C56.7912 29.1312 51.9471 29.0233 50.937 28.0108C51.2423 25.2835 51.2423 22.8568 50.937 21.6768C50.6316 20.4967 58.6301 16.2748 58.2467 17.8222Z" fill="#F77F89"/>
<path fill-rule="evenodd" clip-rule="evenodd" d="M43.9624 12.9666C43.9624 7.66791 47.7963 3.3725 52.5279 3.3725C57.2595 3.3725 61.0935 7.66791 61.0935 12.9666C61.0935 18.2652 57.2595 22.5584 52.5279 22.5584C47.7963 22.5584 43.9624 18.2629 43.9624 12.9666Z" fill="#F77F89"/>
<path fill-rule="evenodd" clip-rule="evenodd" d="M54.2061 22.0533C54.0799 20.4142 52.7322 16.8534 52.0297 16.4287C51.3272 16.004 45.8128 15.352 43.9624 12.597C43.0211 13.3753 42.2497 14.8216 42.3255 15.1224C42.4816 15.7445 43.9578 16.7983 43.9578 16.7983C43.9578 16.7983 44.2906 20.7884 47.1719 22.5676C49.2541 23.8578 53.3751 22.8041 54.2061 22.0533Z" fill="white"/>
<path d="M51.8484 16.9613C52.8103 15.3542 55.3862 13.2513 56.7568 12.6636" stroke="white" stroke-width="2" stroke-linecap="round" stroke-linejoin="round"/>
<path d="M53.1133 19.3558C53.1133 19.3558 58.5658 20.1891 59.4497 17.8222" stroke="white" stroke-width="2" stroke-linecap="round" stroke-linejoin="round"/>
<path fill-rule="evenodd" clip-rule="evenodd" d="M47.8308 3.97635C48.9534 4.99109 49.4493 7.52563 50.4755 8.79749C52.1399 10.8637 55.3403 11.215 56.3252 13.94C57.3101 16.6651 62.4641 14.4635 62.4641 14.4635L61.8029 7.98479L57.985 3.99242L52.0481 2.29584C52.0481 2.29584 46.7173 2.95932 47.8308 3.97635Z" fill="black"/>
<path fill-rule="evenodd" clip-rule="evenodd" d="M54.8536 15.3519C54.8536 14.7045 55.0456 14.0715 55.4053 13.5331C55.765 12.9948 56.2763 12.5751 56.8745 12.3274C57.4727 12.0796 58.131 12.0147 58.766 12.1411C59.4011 12.2674 59.9844 12.5792 60.4423 13.037C60.9001 13.4949 61.2119 14.0782 61.3382 14.7133C61.4646 15.3483 61.3997 16.0066 61.1519 16.6048C60.9041 17.203 60.4845 17.7143 59.9462 18.074C59.4078 18.4337 58.7748 18.6257 58.1273 18.6257C57.2593 18.6251 56.4269 18.28 55.8131 17.6662C55.1993 17.0524 54.8542 16.22 54.8536 15.3519Z" fill="#F77F89"/>
<path fill-rule="evenodd" clip-rule="evenodd" d="M47.6769 12.3008C47.6769 11.6373 47.9685 11.1001 48.3266 11.1001C48.6848 11.1001 48.9786 11.6373 48.9786 12.3008C48.9786 12.9643 48.6871 13.5015 48.3266 13.5015C47.9662 13.5015 47.6769 12.9643 47.6769 12.3008Z" fill="#CB5D66"/>
<path fill-rule="evenodd" clip-rule="evenodd" d="M54.5987 24.6085C68.6558 24.6085 78.4496 51.2626 79.4689 55.3054C80.4883 59.3483 79.6985 74.0895 79.3335 75.2099C77.94 75.4831 72.9053 74.5602 71.8584 73.9311C70.9401 72.3975 70.6026 60.774 70.2284 59.7202C69.9647 58.8333 69.4996 58.0193 68.8693 57.3418C69.278 60.4687 68.8349 68.1457 68.564 69.2661C68.2931 70.3864 46.474 70.3336 44.8187 69.6403C43.781 69.2064 43.0486 68.7541 42.9017 67.7073C42.6721 65.9785 43.3746 64.8352 43.1841 63.3912C42.9935 61.9471 42.1831 61.7244 41.9375 59.3736C41.6827 56.9125 43.3425 53.6341 42.7984 51.2052C39.9241 38.3557 46.816 24.6085 54.5987 24.6085Z" fill="#F7D167"/>
<path fill-rule="evenodd" clip-rule="evenodd" d="M51.5752 24.5213H57.6131C57.9689 24.5213 58.2582 24.93 58.2582 25.4396V27.9328C58.2582 28.4356 57.9689 28.8511 57.6131 28.8511H51.5752C51.217 28.8511 50.9278 28.4425 50.9278 27.9328V25.4327C50.9278 24.93 51.217 24.5213 51.5752 24.5213Z" fill="#F7D167"/>
<path d="M28.0227 147.107L50.6592 72.2873" stroke="#8D8D8D" stroke-width="2" stroke-linecap="round" stroke-linejoin="round"/>
<path d="M37.6765 146.666L26.8863 141.322" stroke="#8D8D8D" stroke-width="2" stroke-linecap="round" stroke-linejoin="round"/>
<path d="M49.6766 106.655C48.5815 107.287 46.2535 106.951 45.1194 106.196" stroke="#8D8D8D" stroke-width="2" stroke-linecap="round" stroke-linejoin="round"/>
<path d="M46.6691 100.204L51.4604 104.72" stroke="#8D8D8D" stroke-width="2" stroke-linecap="round" stroke-linejoin="round"/>
<path d="M53.4118 107.482C54.4839 105.112 55.2989 103.505 55.7076 103.053C60.3657 98.0024 67.6135 81.2822 68.6053 72.1312" stroke="#8D8D8D" stroke-width="2" stroke-linecap="round" stroke-linejoin="round"/>
<path d="M92.02 137.88C92.02 137.88 61.1417 108.402 59.7068 107.248C59.615 105.181 59.4773 101.157 58.047 99.9217" stroke="#8D8D8D" stroke-width="2" stroke-linecap="round" stroke-linejoin="round"/>
<path d="M70.1113 101.304C69.1219 101.981 67.4299 104.398 67.3197 105.794" stroke="#8D8D8D" stroke-width="2" stroke-linecap="round" stroke-linejoin="round"/>
<path d="M68.9864 100.372C68.4331 100.528 66.8352 101.437 66.4266 102.174" stroke="#8D8D8D" stroke-width="2" stroke-linecap="round" stroke-linejoin="round"/>
<path d="M69.0346 99.0516L67.0304 98.9023L63.7061 97.6465" stroke="#8D8D8D" stroke-width="2" stroke-linecap="round" stroke-linejoin="round"/>
<path d="M68.9657 99.047L67.1291 98.9092" stroke="#8D8D8D" stroke-width="2" stroke-linecap="round" stroke-linejoin="round"/>
<path d="M95.3604 128.013L84.5977 138.018" stroke="#8D8D8D" stroke-width="2" stroke-linecap="round" stroke-linejoin="round"/>
<path d="M43.2231 74.5693C43.2231 74.5693 51.2147 76.0157 56.1553 75.3407" stroke="#8D8D8D" stroke-width="2" stroke-linecap="round" stroke-linejoin="round"/>
<path d="M44.1598 70.0214C43.4711 69.6564 43.0119 69.2041 42.9017 68.3937C42.6721 66.6672 43.3746 65.5216 43.1841 64.0799C42.9935 62.6381 42.1831 62.4132 41.9375 60.0623C41.6827 57.6012 43.3425 54.3228 42.7984 51.8939C41.7924 47.2537 41.9327 42.4382 43.2071 37.8643" stroke="#FF3274" stroke-width="2" stroke-linecap="round" stroke-linejoin="round"/>
<path d="M34.4945 71.1876C33.6543 70.7078 29.3474 66.7843 28.3166 64.6768" stroke="#FF3274" stroke-width="2" stroke-linecap="round" stroke-linejoin="round"/>
<path d="M33.3673 70.3038L31.1381 72.6937" stroke="#FF3274" stroke-width="2" stroke-linecap="round" stroke-linejoin="round"/>
<path d="M31.9348 69.1995L29.7079 71.5917" stroke="#FF3274" stroke-width="2" stroke-linecap="round" stroke-linejoin="round"/>
<path d="M30.5435 67.9138L28.4383 70.1729" stroke="#FF3274" stroke-width="2" stroke-linecap="round" stroke-linejoin="round"/>
<path d="M29.4301 66.456L27.3776 68.6577" stroke="#FF3274" stroke-width="2" stroke-linecap="round" stroke-linejoin="round"/>
<path d="M79.6939 72.2713L71.1995 71.353" stroke="#FF3274" stroke-width="2" stroke-linecap="round" stroke-linejoin="round"/>
<path d="M78.2912 72.1198L78.0616 75.9239" stroke="#FF3274" stroke-width="2" stroke-linecap="round" stroke-linejoin="round"/>
<path d="M76.1676 71.8879L75.8416 75.6575" stroke="#FF3274" stroke-width="2" stroke-linecap="round" stroke-linejoin="round"/>
<path d="M74.0784 71.6606L73.8328 75.2604" stroke="#FF3274" stroke-width="2" stroke-linecap="round" stroke-linejoin="round"/>
<path d="M80.1531 62.4315C78.8906 62.4304 77.6676 61.9912 76.6929 61.1889C75.7181 60.3866 75.052 59.2709 74.8081 58.0322C74.5643 56.7934 74.7579 55.5085 75.3558 54.3966C75.9537 53.2847 76.919 52.4148 78.0869 51.9352" stroke="#FF3274" stroke-width="2" stroke-linecap="round" stroke-linejoin="round"/>
<path d="M68.8716 58.0305C68.1186 56.7954 59.3533 42.9656 58.8987 42.4192" stroke="#FF3274" stroke-width="2" stroke-linecap="round" stroke-linejoin="round"/>
<path d="M56.9106 42.4858L58.9079 42.3664" stroke="#FF3274" stroke-width="2" stroke-linecap="round" stroke-linejoin="round"/>
<path d="M57.2021 44.7035L58.885 42.3687" stroke="#FF3274" stroke-width="2" stroke-linecap="round" stroke-linejoin="round"/>
<path d="M58.6163 45.9157L58.8758 42.4031" stroke="#FF3274" stroke-width="2" stroke-linecap="round" stroke-linejoin="round"/>
<path d="M47.1283 64.0524L53.2924 61.0426" stroke="#FF3274" stroke-width="2" stroke-linecap="round" stroke-linejoin="round"/>
<path d="M53.1868 60.2322L45.0574 61.8645" stroke="#FF3274" stroke-width="2" stroke-linecap="round" stroke-linejoin="round"/>
<path d="M46.0699 60.6294L52.8677 56.1526" stroke="#FF3274" stroke-width="2" stroke-linecap="round" stroke-linejoin="round"/>
<path d="M54.7273 28.8374H51.5752C51.217 28.8374 50.9278 28.4287 50.9278 27.9191V25.4327C50.9278 24.9299 51.217 24.5144 51.5752 24.5144H57.6131C57.715 24.5204 57.8137 24.5527 57.8994 24.6082C57.9851 24.6638 58.055 24.7406 58.1021 24.8312" stroke="#FF3274" stroke-width="2" stroke-linecap="round" stroke-linejoin="round"/>
<path d="M52.5164 24.5213L52.5578 28.8374" stroke="#FF3274" stroke-width="2" stroke-linecap="round" stroke-linejoin="round"/>
<path d="M54.2934 24.5809L54.314 26.6793L54.3347 28.897" stroke="#FF3274" stroke-width="2" stroke-linecap="round" stroke-linejoin="round"/>
<path d="M56.2815 24.5809L56.3022 26.6793L56.3229 28.897" stroke="#FF3274" stroke-width="2" stroke-linecap="round" stroke-linejoin="round"/>
<path d="M29.2808 161.683L9.57154 152.846" stroke="white" stroke-width="2" stroke-linecap="round" stroke-linejoin="round"/>
<path d="M107.271 143.803L96.6965 155.167L88.2021 156.29" stroke="white" stroke-width="2" stroke-linecap="round" stroke-linejoin="round"/>
<path fill-rule="evenodd" clip-rule="evenodd" d="M4.28664 19.9435C2.82881 19.3282 3.01248 15.8708 4.56213 14.5461C6.11178 13.2215 10.0031 12.0759 11.5344 7.94804C12.09 6.8254 13.7499 8.46 14.1838 11.2494C14.4248 17.8865 7.48466 21.2934 4.28664 19.9435Z" fill="#AADAF1"/>
<path d="M11.2199 11.9542C10.988 13.4189 7.91857 20.0215 1.71996 21.7021" stroke="#72A5BD" stroke-width="2" stroke-linecap="round" stroke-linejoin="round"/>
<path d="M43.9624 12.597C43.0211 13.3753 42.2497 14.8216 42.3255 15.1224C42.4816 15.7445 43.9578 16.7983 43.9578 16.7983C43.9578 16.7983 44.2906 20.7884 47.1719 22.5676C48.1843 23.1921 49.6766 23.2563 51.0402 23.0842" stroke="#C9C9C9" stroke-width="2" stroke-linecap="round" stroke-linejoin="round"/>
<path d="M108.834 143.078C110.017 137.46 109.592 119.243 106.357 104.128" stroke="#72A5BD" stroke-width="2" stroke-linecap="round" stroke-linejoin="round"/>
</svg>
