<svg width="310" height="217" viewBox="0 0 310 217" fill="none" xmlns="http://www.w3.org/2000/svg">
<path d="M85.5229 213.553C40.3252 204.071 22.3348 198.114 10.891 180.972C-0.00191965 164.654 -4.79486 138.455 6.3655 123.766C14.5565 112.986 24.6296 117.239 38.4118 105.228C41.3648 102.654 43.5327 100.395 45.3102 97.6041C58.9356 76.203 24.5624 46.4389 34.2728 26.6679C37.3546 20.393 62.8899 16.1768 113.835 8.00066C124.943 6.21785 133.486 5.17256 144.369 7.77274C165.168 12.7413 169.727 34.5358 179.955 32.7351C189.371 31.0774 187.227 13.9381 200.351 4.91231C217.869 -7.13564 246.058 6.64252 248.054 7.64807C272.985 20.2107 281.905 45.8837 292.98 79.3568C307.039 121.844 318.29 154.578 301.84 184.518C288.054 209.61 263.895 220.114 250.915 225.611C216.763 240.072 172.735 231.848 85.5229 213.553Z" fill="#92CED7"/>
</svg>
