<svg width="303" height="169" viewBox="0 0 303 169" fill="none" xmlns="http://www.w3.org/2000/svg">
<path d="M259.562 11.1565L219.96 1.80615L203.039 26.4884L206.301 39.3822L190.092 36.8128L175.455 39.9416L172.776 47.2563C164.711 31.5489 157.253 15.7234 151.069 1.80615C151.069 7.26053 127.867 19.7 98.5631 23.6237C88.3116 45.4412 1.28577 167.08 1.28577 167.08L301.304 166.457L259.562 11.1565Z" fill="#92CED7"/>
<path opacity="0.4" d="M167.536 36.87L177.439 56.1906L183.277 59.4917L193.319 58.2839H207.171L219.96 71.9682L228.412 70.111C228.412 70.111 234.147 69.7596 238.544 69.2013V46.2204L196.483 22.8445L167.536 36.87Z" fill="white"/>
<path opacity="0.14" d="M167.536 36.87L175.455 33.0333L197.531 91.062C197.531 91.0616 170.871 47.7624 167.536 36.87Z" fill="#686868"/>
<path d="M219.96 73.137C219.64 73.137 219.33 73.0053 219.107 72.7661L206.664 59.4527H193.389L183.417 60.6519C183.17 60.6811 182.92 60.6317 182.703 60.5089L176.864 57.2079C176.665 57.0953 176.503 56.927 176.399 56.7236L166.496 37.403C166.353 37.1233 166.328 36.7972 166.428 36.4991C166.528 36.2007 166.744 35.9553 167.027 35.8181L195.973 21.7926C196.316 21.6262 196.718 21.6379 197.051 21.823L239.113 45.1989C239.484 45.405 239.714 45.7961 239.714 46.2204V69.2013C239.714 69.79 239.277 70.2867 238.693 70.3607C234.611 70.8789 229.333 71.2237 228.575 71.2716L220.211 73.1097C220.128 73.1281 220.044 73.137 219.96 73.137ZM193.319 57.1155H207.172C207.495 57.1155 207.805 57.25 208.025 57.4864L220.36 70.6841L228.161 68.9699C228.22 68.957 228.28 68.9484 228.34 68.9449C228.393 68.9418 233.242 68.6414 237.376 68.1657V46.9084L196.446 24.1613L169.121 37.4007L178.318 55.346L183.518 58.2859L193.179 57.1241C193.226 57.1183 193.272 57.1155 193.319 57.1155Z" fill="#51B3C3"/>
<path opacity="0.4" d="M87.5643 42.1896L93.6206 51.1761L127.867 44.129L145.518 58.2839L160.803 53.9945L175.455 52.4263C166.365 35.0487 157.932 17.2518 151.069 1.80539C151.069 7.25977 127.867 19.6993 98.5635 23.6229C96.8294 27.3136 92.8975 33.8612 87.5643 42.1896Z" fill="white"/>
<path d="M145.518 59.4532C145.256 59.4532 144.997 59.3643 144.787 59.196L127.565 45.3848L93.8561 52.3208C93.3917 52.4158 92.916 52.2222 92.6514 51.8291L86.5951 42.8426C86.3349 42.4561 86.3287 41.9516 86.5799 41.5593C92.2233 32.7458 95.8991 26.5441 97.5051 23.1266C97.6742 22.767 98.0143 22.518 98.4078 22.465C116.057 20.1021 129.112 15.0342 135.323 12.224C146.018 7.38484 149.9 3.34237 149.9 1.80618C149.9 1.25412 150.286 0.777249 150.826 0.662707C151.368 0.547386 151.913 0.827119 152.137 1.33126C157.52 13.4462 166.115 32.0515 176.49 51.8848C176.67 52.2277 176.668 52.6367 176.485 52.9776C176.303 53.3185 175.964 53.5476 175.579 53.5885L161.024 55.1461L145.834 59.4091C145.73 59.4387 145.624 59.4532 145.518 59.4532ZM127.867 42.9607C128.131 42.9607 128.389 43.0499 128.599 43.2178L145.781 56.9967L160.487 52.8697C160.55 52.8522 160.614 52.8397 160.678 52.8331L173.626 51.4473C164.235 33.3956 156.357 16.4816 151.073 4.68337C150.314 5.69165 149.185 6.765 147.692 7.896C144.909 10.0037 140.966 12.2365 136.287 14.3536C130.033 17.1836 116.973 22.2593 99.3436 24.6967C97.6204 28.2054 94.1327 34.0766 88.9623 42.1725L94.1522 49.8729L127.632 42.984C127.71 42.9685 127.789 42.9607 127.867 42.9607Z" fill="#51B3C3"/>
<path d="M1.28583 168.249C0.848314 168.249 0.447417 168.005 0.246774 167.615C0.0457412 167.226 0.0800279 166.757 0.335215 166.4C1.2048 165.185 87.416 44.5993 97.5054 23.1266C97.6745 22.767 98.0146 22.518 98.4081 22.465C116.057 20.1021 129.112 15.0342 135.323 12.224C146.018 7.38484 149.901 3.34237 149.901 1.80618C149.901 1.25412 150.287 0.777249 150.827 0.662707C151.368 0.547386 151.914 0.827119 152.137 1.33126C159.09 16.9791 173.18 47.413 189.424 75.4294C205.296 102.806 218.766 120.286 229.458 127.386C229.996 127.743 230.142 128.469 229.785 129.006C229.428 129.544 228.702 129.691 228.165 129.333C217.171 122.034 203.456 104.292 187.402 76.6017C171.899 49.8636 158.358 20.9456 151.073 4.68298C150.314 5.69126 149.185 6.7646 147.692 7.89561C144.909 10.0033 140.966 12.2361 136.287 14.3532C130.033 17.1832 116.973 22.2589 99.3443 24.6963C88.6576 46.4721 14.8322 150.122 3.56109 165.906L299.781 165.291L258.614 12.1337L220.471 3.1277L204.004 27.1492C203.638 27.6814 202.911 27.8173 202.379 27.4523C201.847 27.0872 201.711 26.3599 202.076 25.8273L218.996 1.14503C219.269 0.747252 219.758 0.558298 220.229 0.668164L259.831 10.0185C260.249 10.1175 260.579 10.4377 260.691 10.8527L302.433 166.154C302.527 166.504 302.453 166.879 302.232 167.167C302.012 167.456 301.67 167.625 301.306 167.626L1.28817 168.249C1.28739 168.249 1.28661 168.249 1.28583 168.249Z" fill="#51B3C3"/>
<path opacity="0.14" d="M223.66 36.8124L240.837 41.8335L244.008 47.4064L259.654 89.7818L238.545 88.7809V46.2204L223.66 36.8124Z" fill="#686868"/>
<path opacity="0.4" d="M242.624 30.045L250.219 25.9531L260.346 41.5659L271.317 54.8921L259.562 11.1565L219.96 1.80615L208.152 19.0303L213.529 22.8445H231.23L242.624 30.045Z" fill="white"/>
<path d="M271.317 56.0609C270.977 56.0609 270.643 55.9121 270.415 55.6351L259.444 42.3088C259.416 42.2749 259.389 42.2391 259.366 42.2021L249.825 27.4936L243.178 31.0748C242.807 31.2746 242.356 31.259 242 31.0338L230.892 24.0133H213.529C213.287 24.0133 213.05 23.9381 212.853 23.7978L207.476 19.9837C206.955 19.6143 206.828 18.8959 207.188 18.3696L218.996 1.14539C219.269 0.747611 219.758 0.557487 220.229 0.668523L259.83 10.0189C260.249 10.1178 260.579 10.4381 260.691 10.853L272.446 54.5886C272.589 55.12 272.341 55.6791 271.853 55.9311C271.682 56.0184 271.499 56.0609 271.317 56.0609ZM261.291 40.8739L268.786 49.9789L258.614 12.1336L220.471 3.12767L209.767 18.7424L213.901 21.6757H231.23C231.451 21.6757 231.668 21.7384 231.855 21.8565L242.671 28.6924L249.665 24.9242C250.2 24.6347 250.869 24.8061 251.199 25.3173L261.291 40.8739Z" fill="#51B3C3"/>
<path d="M238.545 94.8931C237.899 94.8931 237.376 94.3698 237.376 93.7243V46.9081L196.446 24.161L168.046 37.9216C167.466 38.2029 166.766 37.961 166.484 37.3793C166.203 36.7984 166.445 36.0991 167.026 35.8178L195.973 21.7923C196.315 21.6259 196.717 21.6376 197.051 21.8227L239.112 45.1986C239.483 45.4047 239.714 45.7958 239.714 46.2201V93.7239C239.714 94.3698 239.19 94.8931 238.545 94.8931Z" fill="#51B3C3"/>
</svg>
