<svg width="360" height="229" viewBox="0 0 360 229" fill="none" xmlns="http://www.w3.org/2000/svg">
<g opacity="0.5">
<mask id="mask0" mask-type="alpha" maskUnits="userSpaceOnUse" x="0" y="-18" width="360" height="247">
<path d="M0 -18H360V54C360 150.65 281.65 229 185 229H175C78.3502 229 0 150.65 0 54V-18Z" fill="#66C6BA"/>
</mask>
<g mask="url(#mask0)">
<path d="M97.5229 225.553C52.3252 216.071 34.3348 210.114 22.891 192.972C11.9981 176.654 7.20514 150.455 18.3655 135.766C26.5565 124.986 36.6296 129.239 50.4118 117.228C53.3648 114.654 55.5327 112.395 57.3102 109.604C70.9356 88.203 36.5624 58.4389 46.2728 38.6679C49.3546 32.393 74.8899 28.1768 125.835 20.0007C136.943 18.2179 145.486 17.1726 156.369 19.7727C177.168 24.7413 181.727 46.5358 191.955 44.7351C201.371 43.0774 199.227 25.9381 212.351 16.9123C229.869 4.86436 258.058 18.6425 260.054 19.6481C284.985 32.2107 293.905 57.8837 304.98 91.3568C319.039 133.844 330.29 166.578 313.84 196.518C300.054 221.61 275.895 232.114 262.915 237.611C228.763 252.072 184.735 243.848 97.5229 225.553Z" fill="#92CED7"/>
<path d="M265.562 67.1565L225.96 57.8062L209.039 82.4884L212.301 95.3822L196.092 92.8128L181.455 95.9416L178.776 103.256C170.711 87.5489 163.253 71.7234 157.069 57.8062C157.069 63.2605 133.867 75.7 104.563 79.6237C94.3116 101.441 7.28577 223.08 7.28577 223.08L307.304 222.457L265.562 67.1565Z" fill="#92CED7"/>
<path opacity="0.4" d="M173.536 92.8701L183.439 112.191L189.277 115.492L199.319 114.284H213.171L225.96 127.968L234.412 126.111C234.412 126.111 240.147 125.76 244.544 125.201V102.22L202.483 78.8445L173.536 92.8701Z" fill="white"/>
<path opacity="0.14" d="M173.536 92.87L181.455 89.0333L203.531 147.062C203.531 147.062 176.871 103.762 173.536 92.87Z" fill="#686868"/>
<path d="M225.96 129.137C225.64 129.137 225.33 129.005 225.107 128.766L212.664 115.453H199.389L189.417 116.652C189.17 116.681 188.92 116.632 188.703 116.509L182.864 113.208C182.665 113.095 182.503 112.927 182.399 112.724L172.496 93.403C172.353 93.1233 172.328 92.7972 172.428 92.4991C172.528 92.2007 172.744 91.9553 173.027 91.8181L201.973 77.7926C202.316 77.6262 202.718 77.6379 203.051 77.823L245.113 101.199C245.484 101.405 245.714 101.796 245.714 102.22V125.201C245.714 125.79 245.277 126.287 244.693 126.361C240.611 126.879 235.333 127.224 234.575 127.272L226.211 129.11C226.128 129.128 226.044 129.137 225.96 129.137ZM199.319 113.116H213.172C213.495 113.116 213.805 113.25 214.025 113.486L226.36 126.684L234.161 124.97C234.22 124.957 234.28 124.948 234.34 124.945C234.393 124.942 239.242 124.641 243.376 124.166V102.908L202.446 80.1613L175.121 93.4007L184.318 111.346L189.518 114.286L199.179 113.124C199.226 113.118 199.272 113.116 199.319 113.116Z" fill="#51B3C3"/>
<path opacity="0.4" d="M93.5643 98.1896L99.6206 107.176L133.867 100.129L151.518 114.284L166.803 109.994L181.455 108.426C172.365 91.0487 163.932 73.2518 157.069 57.8054C157.069 63.2598 133.867 75.6993 104.563 79.6229C102.829 83.3136 98.8975 89.8612 93.5643 98.1896Z" fill="white"/>
<path d="M151.518 115.453C151.256 115.453 150.997 115.364 150.787 115.196L133.565 101.385L99.8561 108.321C99.3917 108.416 98.916 108.222 98.6514 107.829L92.5951 98.8426C92.3349 98.4561 92.3287 97.9516 92.5799 97.5593C98.2233 88.7458 101.899 82.5441 103.505 79.1266C103.674 78.767 104.014 78.518 104.408 78.465C122.057 76.1021 135.112 71.0342 141.323 68.224C152.018 63.3848 155.9 59.3424 155.9 57.8062C155.9 57.2541 156.286 56.7772 156.826 56.6627C157.368 56.5474 157.913 56.8271 158.137 57.3313C163.52 69.4462 172.115 88.0515 182.49 107.885C182.67 108.228 182.668 108.637 182.485 108.978C182.303 109.319 181.964 109.548 181.579 109.589L167.024 111.146L151.834 115.409C151.73 115.439 151.624 115.453 151.518 115.453ZM133.867 98.9607C134.131 98.9607 134.389 99.0499 134.599 99.2178L151.781 112.997L166.487 108.87C166.55 108.852 166.614 108.84 166.678 108.833L179.626 107.447C170.235 89.3956 162.357 72.4816 157.073 60.6834C156.314 61.6917 155.185 62.765 153.692 63.896C150.909 66.0037 146.966 68.2365 142.287 70.3536C136.033 73.1836 122.973 78.2593 105.344 80.6967C103.62 84.2054 100.133 90.0766 94.9623 98.1725L100.152 105.873L133.632 98.984C133.71 98.9685 133.789 98.9607 133.867 98.9607Z" fill="#51B3C3"/>
<path d="M7.28583 224.249C6.84831 224.249 6.44742 224.005 6.24677 223.615C6.04574 223.226 6.08003 222.757 6.33521 222.4C7.2048 221.185 93.416 100.599 103.505 79.1266C103.674 78.767 104.015 78.518 104.408 78.465C122.057 76.1021 135.112 71.0342 141.323 68.224C152.018 63.3848 155.901 59.3424 155.901 57.8062C155.901 57.2541 156.287 56.7772 156.827 56.6627C157.368 56.5474 157.914 56.8271 158.137 57.3313C165.09 72.9791 179.18 103.413 195.424 131.429C211.296 158.806 224.766 176.286 235.458 183.386C235.996 183.743 236.142 184.469 235.785 185.006C235.428 185.544 234.702 185.691 234.165 185.333C223.171 178.034 209.456 160.292 193.402 132.602C177.899 105.864 164.358 76.9456 157.073 60.683C156.314 61.6913 155.185 62.7646 153.692 63.8956C150.909 66.0033 146.966 68.2361 142.287 70.3532C136.033 73.1832 122.973 78.2589 105.344 80.6963C94.6576 102.472 20.8322 206.122 9.56109 221.906L305.781 221.291L264.614 68.1337L226.471 59.1277L210.004 83.1492C209.638 83.6814 208.911 83.8173 208.379 83.4523C207.847 83.0872 207.711 82.3599 208.076 81.8273L224.996 57.145C225.269 56.7473 225.758 56.5583 226.229 56.6682L265.831 66.0185C266.249 66.1175 266.579 66.4377 266.691 66.8527L308.433 222.154C308.527 222.504 308.453 222.879 308.232 223.167C308.012 223.456 307.67 223.625 307.306 223.626L7.28817 224.249C7.28739 224.249 7.28661 224.249 7.28583 224.249Z" fill="#51B3C3"/>
<path opacity="0.14" d="M229.66 92.8124L246.837 97.8335L250.008 103.406L265.654 145.782L244.545 144.781V102.22L229.66 92.8124Z" fill="#686868"/>
<path opacity="0.4" d="M248.624 86.045L256.219 81.9531L266.346 97.5659L277.317 110.892L265.562 67.1565L225.96 57.8062L214.152 75.0303L219.529 78.8445H237.23L248.624 86.045Z" fill="white"/>
<path d="M277.317 112.061C276.977 112.061 276.643 111.912 276.415 111.635L265.444 98.3088C265.416 98.2749 265.389 98.2391 265.366 98.2021L255.825 83.4936L249.178 87.0748C248.807 87.2746 248.356 87.259 248 87.0338L236.892 80.0133H219.529C219.287 80.0133 219.05 79.9381 218.853 79.7978L213.476 75.9837C212.955 75.6143 212.828 74.8959 213.188 74.3696L224.996 57.1454C225.269 56.7476 225.758 56.5575 226.229 56.6685L265.83 66.0189C266.249 66.1178 266.579 66.4381 266.691 66.853L278.446 110.589C278.589 111.12 278.341 111.679 277.853 111.931C277.682 112.018 277.499 112.061 277.317 112.061ZM267.291 96.8739L274.786 105.979L264.614 68.1336L226.471 59.1277L215.767 74.7424L219.901 77.6757H237.23C237.451 77.6757 237.668 77.7384 237.855 77.8565L248.671 84.6924L255.665 80.9242C256.2 80.6347 256.869 80.8061 257.199 81.3173L267.291 96.8739Z" fill="#51B3C3"/>
<path d="M244.545 150.893C243.899 150.893 243.376 150.37 243.376 149.724V102.908L202.446 80.161L174.046 93.9216C173.466 94.2029 172.766 93.961 172.484 93.3793C172.203 92.7984 172.445 92.0991 173.026 91.8178L201.973 77.7923C202.315 77.6259 202.717 77.6376 203.051 77.8227L245.112 101.199C245.483 101.405 245.714 101.796 245.714 102.22V149.724C245.714 150.37 245.19 150.893 244.545 150.893Z" fill="#51B3C3"/>
<path d="M166.514 148.427C168.702 171.517 158.213 193.597 142.693 193.597C127.173 193.597 116.684 171.516 118.871 148.427C120.72 128.92 131.275 115.196 142.693 115.196C154.11 115.196 164.667 128.92 166.514 148.427Z" fill="#92CED7"/>
<path d="M142.693 194.766C137.4 194.766 132.396 192.342 128.225 187.756C120.383 179.135 116.254 163.655 117.707 148.317C119.56 128.768 130.301 114.027 142.693 114.027C155.085 114.027 165.826 128.768 167.678 148.317C169.131 163.655 165.003 179.136 157.161 187.756C152.989 192.342 147.986 194.766 142.693 194.766ZM142.693 116.365C137.471 116.365 132.301 119.498 128.136 125.187C123.774 131.145 120.896 139.438 120.035 148.537C118.641 163.251 122.534 178.027 129.953 186.183C133.67 190.269 138.076 192.428 142.692 192.428C147.309 192.428 151.714 190.269 155.432 186.183C162.851 178.027 166.745 163.251 165.35 148.537C164.489 139.438 161.611 131.145 157.249 125.187C153.084 119.498 147.915 116.365 142.693 116.365Z" fill="#51B3C3"/>
<path d="M142.693 223.626C142.047 223.626 141.524 223.103 141.524 222.457V135.955C141.524 135.31 142.047 134.787 142.693 134.787C143.338 134.787 143.862 135.31 143.862 135.955V222.457C143.862 223.103 143.338 223.626 142.693 223.626Z" fill="#51B3C3"/>
<path d="M142.693 183.38C142.383 183.38 142.085 183.257 141.866 183.038L133.04 174.212C132.584 173.756 132.584 173.016 133.04 172.559C133.497 172.103 134.237 172.103 134.693 172.559L142.692 180.558L150.691 172.559C151.148 172.103 151.888 172.103 152.344 172.559C152.801 173.016 152.801 173.756 152.344 174.212L143.519 183.038C143.3 183.257 143.003 183.38 142.693 183.38Z" fill="#51B3C3"/>
<path d="M142.693 170.903C142.394 170.903 142.094 170.789 141.866 170.561L133.041 161.736C132.584 161.279 132.584 160.539 133.041 160.083C133.497 159.626 134.238 159.626 134.694 160.083L142.693 168.082L150.692 160.083C151.149 159.626 151.889 159.627 152.345 160.083C152.802 160.539 152.802 161.279 152.345 161.736L143.52 170.561C143.291 170.789 142.992 170.903 142.693 170.903Z" fill="#51B3C3"/>
<path d="M142.693 158.427C142.394 158.427 142.094 158.313 141.866 158.084L133.041 149.259C132.584 148.802 132.584 148.062 133.041 147.606C133.497 147.149 134.237 147.149 134.694 147.606L142.693 155.605L150.692 147.606C151.148 147.149 151.888 147.149 152.345 147.606C152.801 148.062 152.801 148.802 152.345 149.259L143.519 158.084C143.291 158.313 142.992 158.427 142.693 158.427Z" fill="#51B3C3"/>
<path d="M142.693 145.95C142.394 145.95 142.094 145.836 141.866 145.607L133.041 136.782C132.584 136.326 132.584 135.585 133.041 135.129C133.497 134.672 134.237 134.672 134.694 135.129L142.693 143.128L150.692 135.129C151.148 134.673 151.888 134.673 152.345 135.129C152.801 135.586 152.801 136.326 152.345 136.782L143.519 145.608C143.291 145.836 142.992 145.95 142.693 145.95Z" fill="#51B3C3"/>
<path d="M136.816 177.762C138.325 189.472 131.09 200.669 120.384 200.669C109.679 200.669 102.444 189.471 103.953 177.762C105.227 167.869 112.509 160.909 120.384 160.909C128.26 160.909 135.541 167.869 136.816 177.762Z" fill="#92CED7"/>
<path d="M120.385 201.838C115.691 201.838 111.302 199.787 108.028 196.064C103.871 191.337 101.914 184.439 102.793 177.612C104.106 167.424 111.669 159.74 120.385 159.74C129.1 159.74 136.662 167.424 137.975 177.612C138.855 184.439 136.898 191.337 132.74 196.065C129.467 199.788 125.078 201.838 120.385 201.838ZM120.385 162.078C112.841 162.078 106.275 168.885 105.112 177.911C104.317 184.081 106.063 190.29 109.784 194.521C112.648 197.778 116.314 199.501 120.385 199.501C124.455 199.501 128.12 197.778 130.985 194.521C134.705 190.291 136.452 184.081 135.657 177.911C134.494 168.884 127.928 162.078 120.385 162.078Z" fill="#51B3C3"/>
<path d="M120.384 223.626C119.739 223.626 119.216 223.103 119.216 222.457V166.672C119.216 166.026 119.739 165.503 120.384 165.503C121.03 165.503 121.553 166.026 121.553 166.672V222.458C121.553 223.103 121.03 223.626 120.384 223.626Z" fill="#51B3C3"/>
<path d="M120.385 195.865C120.085 195.865 119.786 195.751 119.558 195.523L113.471 189.435C113.014 188.979 113.014 188.239 113.471 187.783C113.927 187.326 114.668 187.326 115.124 187.783L120.385 193.044L125.646 187.783C126.102 187.326 126.843 187.326 127.299 187.783C127.755 188.239 127.755 188.979 127.299 189.435L121.211 195.523C120.983 195.751 120.684 195.865 120.385 195.865Z" fill="#51B3C3"/>
<path d="M120.385 187.259C120.074 187.259 119.777 187.136 119.558 186.916L113.47 180.829C113.014 180.372 113.014 179.632 113.47 179.176C113.927 178.719 114.667 178.72 115.123 179.176L120.385 184.437L125.645 179.176C126.102 178.719 126.842 178.719 127.298 179.176C127.755 179.632 127.755 180.372 127.298 180.829L121.211 186.916C120.992 187.136 120.695 187.259 120.385 187.259Z" fill="#51B3C3"/>
<path d="M120.385 178.653C120.074 178.653 119.777 178.53 119.558 178.311L113.47 172.223C113.014 171.766 113.014 171.026 113.47 170.57C113.927 170.113 114.667 170.113 115.123 170.57L120.385 175.831L125.645 170.57C126.102 170.113 126.842 170.113 127.298 170.57C127.755 171.026 127.755 171.766 127.298 172.223L121.211 178.311C120.992 178.53 120.695 178.653 120.385 178.653Z" fill="#51B3C3"/>
<path d="M341.458 154.996C338.28 151.31 337.449 146.655 339.09 142.354C339.942 140.121 340.409 137.695 340.409 135.158C340.409 124.133 331.593 115.196 320.719 115.196C309.844 115.196 301.029 124.133 301.029 135.158C301.029 137.695 301.496 140.121 302.348 142.354C303.989 146.655 303.158 151.31 299.979 154.996C296.118 159.475 293.796 165.224 293.796 171.496C293.796 185.789 305.85 197.375 320.719 197.375C335.589 197.375 347.642 185.789 347.642 171.496C347.642 165.224 345.32 159.475 341.458 154.996Z" fill="#92CED7"/>
<path d="M320.719 198.544C305.229 198.544 292.627 186.41 292.627 171.496C292.627 165.2 294.924 159.07 299.094 154.232C301.974 150.894 302.761 146.716 301.256 142.77C300.33 140.343 299.86 137.781 299.86 135.158C299.86 123.506 309.218 114.027 320.719 114.027C332.221 114.027 341.578 123.506 341.578 135.158C341.578 137.781 341.109 140.343 340.182 142.77C338.677 146.716 339.465 150.894 342.344 154.232C346.514 159.069 348.811 165.199 348.811 171.496C348.811 186.41 336.208 198.544 320.719 198.544ZM320.719 116.365C310.506 116.365 302.198 124.795 302.198 135.158C302.198 137.496 302.615 139.777 303.44 141.937C305.261 146.711 304.323 151.749 300.864 155.759C297.06 160.172 294.965 165.76 294.965 171.497C294.965 185.122 306.518 196.206 320.719 196.206C334.92 196.206 346.473 185.122 346.473 171.497C346.473 165.76 344.378 160.172 340.573 155.759C340.573 155.759 340.573 155.759 340.573 155.759C337.115 151.749 336.176 146.711 337.998 141.937C338.822 139.777 339.24 137.496 339.24 135.158C339.24 124.795 330.931 116.365 320.719 116.365Z" fill="#51B3C3"/>
<path d="M320.719 224.249C320.073 224.249 319.55 223.726 319.55 223.08V128.5C319.55 127.854 320.073 127.331 320.719 127.331C321.364 127.331 321.888 127.854 321.888 128.5V223.08C321.888 223.726 321.364 224.249 320.719 224.249Z" fill="#51B3C3"/>
<path d="M320.719 188.899C320.419 188.899 320.121 188.785 319.892 188.556L310.159 178.823C309.703 178.367 309.703 177.627 310.159 177.171C310.616 176.714 311.355 176.714 311.812 177.171L320.719 186.077L329.626 177.171C330.082 176.714 330.822 176.714 331.278 177.171C331.735 177.627 331.735 178.367 331.278 178.823L321.545 188.556C321.317 188.785 321.017 188.899 320.719 188.899Z" fill="#51B3C3"/>
<path d="M320.719 175.139C320.409 175.139 320.111 175.016 319.892 174.796L310.159 165.063C309.703 164.607 309.703 163.867 310.159 163.41C310.616 162.954 311.355 162.954 311.812 163.41L320.719 172.317L329.626 163.41C330.082 162.954 330.822 162.954 331.278 163.41C331.735 163.867 331.735 164.607 331.278 165.063L321.545 174.796C321.326 175.016 321.028 175.139 320.719 175.139Z" fill="#51B3C3"/>
<path d="M320.719 161.379C320.409 161.379 320.111 161.256 319.892 161.036L310.159 151.303C309.703 150.846 309.703 150.106 310.159 149.65C310.616 149.194 311.355 149.194 311.812 149.65L320.719 158.556L329.626 149.65C330.082 149.193 330.822 149.193 331.278 149.65C331.735 150.106 331.735 150.846 331.278 151.302L321.545 161.036C321.326 161.255 321.028 161.379 320.719 161.379Z" fill="#51B3C3"/>
<path d="M320.719 147.618C320.409 147.618 320.111 147.495 319.892 147.276L310.159 137.542C309.703 137.086 309.703 136.346 310.159 135.889C310.616 135.433 311.355 135.433 311.812 135.889L320.719 144.796L329.626 135.889C330.082 135.433 330.822 135.433 331.278 135.889C331.735 136.345 331.735 137.086 331.278 137.542L321.545 147.275C321.326 147.495 321.028 147.618 320.719 147.618Z" fill="#51B3C3"/>
<path d="M31.5878 60.1069C25.3912 58.8261 17.8885 69.3162 14.7639 77.3649C9.28253 91.4848 12.5496 110.265 19.3522 111.881C26.5902 113.6 40.0596 96.4187 39.9998 79.6159C39.9737 72.2865 37.3597 61.2997 31.5878 60.1069Z" fill="#92CED7"/>
</g>
</g>
</svg>
